<?xml version="1.0" encoding="iso-8859-1"?>
<!-- Generator: Adobe Illustrator 19.0.0, SVG Export Plug-In . SVG Version: 6.00 Build 0)  -->
<svg version="1.1" id="Capa_1" xmlns="http://www.w3.org/2000/svg" xmlns:xlink="http://www.w3.org/1999/xlink" x="0px" y="0px"
	 viewBox="0 0 512 512" style="enable-background:new 0 0 512 512;" xml:space="preserve">
<g>
	<g>
		<path d="M436,0H106C81.187,0,61,20.187,61,45v45H46c-8.284,0-15,6.716-15,15s6.716,15,15,15h15v122H46c-8.284,0-15,6.716-15,15
			s6.716,15,15,15h15v120H46c-8.284,0-15,6.716-15,15s6.716,15,15,15h15v45c0,24.813,20.187,45,45,45h330c24.813,0,45-20.187,45-45
			V45C481,20.187,460.813,0,436,0z M151,482h-45c-8.271,0-15-6.729-15-15v-45h15c8.284,0,15-6.716,15-15s-6.716-15-15-15H91V272h15
			c8.284,0,15-6.716,15-15s-6.716-15-15-15H91V120h15c8.284,0,15-6.716,15-15s-6.716-15-15-15H91V45c0-8.271,6.729-15,15-15h45V482z
			 M451,467c0,8.271-6.729,15-15,15H181V30h255c8.271,0,15,6.729,15,15V467z"/>
	</g>
</g>
<g>
	<g>
		<path d="M406,332H226c-8.284,0-15,6.716-15,15s6.716,15,15,15h180c8.284,0,15-6.716,15-15S414.284,332,406,332z"/>
	</g>
</g>
<g>
	<g>
		<path d="M406,392H226c-8.284,0-15,6.716-15,15s6.716,15,15,15h180c8.284,0,15-6.716,15-15S414.284,392,406,392z"/>
	</g>
</g>
<g>
	<g>
		<path d="M406,90H226c-8.284,0-15,6.716-15,15v60c0,8.284,6.716,15,15,15h180c8.284,0,15-6.716,15-15v-60
			C421,96.716,414.284,90,406,90z M391,150H241v-30h150V150z"/>
	</g>
</g>
<g>
</g>
<g>
</g>
<g>
</g>
<g>
</g>
<g>
</g>
<g>
</g>
<g>
</g>
<g>
</g>
<g>
</g>
<g>
</g>
<g>
</g>
<g>
</g>
<g>
</g>
<g>
</g>
<g>
</g>
</svg>
