<svg height="512pt" viewBox="0 -20 512 512" width="512pt" xmlns="http://www.w3.org/2000/svg"><path d="m40 20v390c0 11.046875-8.953125 20-20 20s-20-8.953125-20-20v-390c0-11.046875 8.953125-20 20-20s20 8.953125 20 20zm452-20c-11.046875 0-20 8.953125-20 20v197c0 11.046875 8.953125 20 20 20s20-8.953125 20-20v-197c0-11.046875-8.953125-20-20-20zm-78 220c11.046875 0 20-8.953125 20-20v-180c0-11.046875-8.953125-20-20-20s-20 8.953125-20 20v180c0 11.046875 8.953125 20 20 20zm-79 26c11.046875 0 20-8.953125 20-20v-206c0-11.046875-8.953125-20-20-20s-20 8.953125-20 20v206c0 11.046875 8.953125 20 20 20zm-157 61c-11.046875 0-20 8.953125-20 20v32c0 11.046875 8.953125 20 20 20s20-8.953125 20-20v-32c0-11.046875-8.953125-20-20-20zm0-307c-11.046875 0-20 8.953125-20 20v237c0 11.046875 8.953125 20 20 20s20-8.953125 20-20v-237c0-11.046875-8.953125-20-20-20zm-77 307c-11.046875 0-20 8.953125-20 20v32c0 11.046875 8.953125 20 20 20s20-8.953125 20-20v-32c0-11.046875-8.953125-20-20-20zm0-307c-11.046875 0-20 8.953125-20 20v237c0 11.046875 8.953125 20 20 20s20-8.953125 20-20v-237c0-11.046875-8.953125-20-20-20zm154 0c-11.046875 0-20 8.953125-20 20v390c0 11.046875 8.953125 20 20 20s20-8.953125 20-20v-390c0-11.046875-8.953125-20-20-20zm257 343c0 49.625-40.375 90-90 90-18.363281 0-35.453125-5.53125-49.707031-15.011719l-47.152344 47.152344c-3.902344 3.90625-9.023437 5.859375-14.140625 5.859375-5.121094 0-10.238281-1.953125-14.144531-5.859375-7.808594-7.808594-7.808594-20.472656 0-28.28125l47.832031-47.832031c-8.050781-13.476563-12.6875-29.21875-12.6875-46.027344 0-49.625 40.375-90 90-90s90 40.375 90 90zm-40 0c0-27.570312-22.429688-50-50-50s-50 22.429688-50 50 22.429688 50 50 50 50-22.429688 50-50zm0 0"/></svg>